# xmcd CD database file
#
# Track frame offsets:
#	150
#	39636
#	60509
#	89885
#	115881
#	143326
#
# Disc length: 2502 seconds
#
# Revision: 0
# Processed by: cddbd v1.5.2PL0 Copyright (c) Steve Scherf et al.
# Submitted via: CDex 1.70beta3
#
DISCID=4d09c406
DTITLE=Kikuchi Masabumi - But Not for Me
DYEAR=1978
DGENRE=Jazz
TTITLE0=Sunday Lunch
TTITLE1=Pastel
TTITLE2=Pumu: #1
TTITLE3=Circle Dance
TTITLE4=Pumu: #2
TTITLE5=A Leaf
EXTD=YEAR: 1978
EXTT0=
EXTT1=
EXTT2=
EXTT3=
EXTT4=
EXTT5=
PLAYORDER=
